<svg width="22" height="22" viewBox="0 0 22 22" fill="none" xmlns="http://www.w3.org/2000/svg">
<path d="M19.0164 3.05114C18.6585 2.69316 18.0781 2.69316 17.7201 3.05114L11.0336 9.73767L4.34707 3.05114C3.9891 2.69316 3.40869 2.69316 3.05072 3.05114C2.69273 3.40912 2.69273 3.98953 3.05072 4.3475L9.73721 11.034L3.05073 17.7205C2.69275 18.0785 2.69275 18.6589 3.05073 19.0169C3.40871 19.3749 3.98912 19.3749 4.34709 19.0169L11.0336 12.3304L17.7201 19.0169C18.0781 19.3749 18.6585 19.3749 19.0164 19.0169C19.3744 18.6589 19.3744 18.0785 19.0164 17.7205L12.3299 11.034L19.0164 4.3475C19.3744 3.98953 19.3744 3.40912 19.0164 3.05114Z" fill="#999999"/>
</svg>
