<svg width="25" height="25" viewBox="0 0 25 25" fill="none" xmlns="http://www.w3.org/2000/svg">
<path d="M3.125 5.72917C3.125 14.6462 10.3537 21.875 19.2708 21.875C19.6731 21.875 20.072 21.8603 20.467 21.8314C20.9202 21.7981 21.1468 21.7816 21.3531 21.6628C21.524 21.5645 21.6859 21.3901 21.7716 21.2125C21.875 20.9981 21.875 20.748 21.875 20.2479V17.3132C21.875 16.8926 21.875 16.6823 21.8057 16.5021C21.7447 16.3428 21.6453 16.201 21.5166 16.0892C21.3708 15.9625 21.1731 15.8906 20.7779 15.7469L17.4375 14.5322C16.9776 14.365 16.7476 14.2814 16.5295 14.2955C16.3371 14.308 16.152 14.3737 15.9947 14.4852C15.8164 14.6116 15.6905 14.8214 15.4387 15.241L14.5833 16.6667C11.823 15.4166 9.58531 13.1759 8.33333 10.4167L9.75899 9.56127C10.1786 9.30951 10.3884 9.18362 10.5148 9.00527C10.6262 8.848 10.692 8.66288 10.7045 8.47052C10.7186 8.25236 10.635 8.02243 10.4678 7.56255L9.25311 4.22209C9.10937 3.82683 9.03751 3.6292 8.91085 3.48344C8.79897 3.35468 8.65718 3.25536 8.49794 3.19422C8.31767 3.125 8.10737 3.125 7.68679 3.125H4.75209C4.25196 3.125 4.00189 3.125 3.78748 3.22839C3.6099 3.31402 3.43556 3.47605 3.33719 3.64691C3.21842 3.8532 3.20182 4.07981 3.16864 4.53305C3.13972 4.92798 3.125 5.32685 3.125 5.72917Z" stroke="white" stroke-width="2" stroke-linecap="round" stroke-linejoin="round"/>
</svg>
