<svg width="206" height="304" viewBox="0 0 206 304" fill="none" xmlns="http://www.w3.org/2000/svg">
<path d="M198.441 244.246L76.3585 303.595H17.4309L187.296 221.023C188.816 220.23 190.479 219.751 192.186 219.616C193.893 219.481 195.61 219.692 197.235 220.236C198.859 220.781 200.359 221.648 201.645 222.786C202.932 223.925 203.978 225.311 204.723 226.864C205.469 228.416 205.897 230.104 205.984 231.826C206.07 233.549 205.813 235.271 205.227 236.891C204.642 238.512 203.739 239.998 202.574 241.261C201.408 242.524 200.003 243.539 198.441 244.246Z" fill="white" fill-opacity="0.1"/>
<path d="M85.5692 176.8L50.5099 191.042L8.65662 174.018C7.02024 173.437 5.51451 172.52 4.23014 171.322C2.94578 170.124 1.90936 168.67 1.18332 167.047C0.45729 165.424 0.0566654 163.666 0.00558785 161.879C-0.0454897 160.092 0.25404 158.312 0.886125 156.648C1.51821 154.983 2.46977 153.468 3.68348 152.194C4.89719 150.92 6.34793 149.913 7.9483 149.233C9.54867 148.554 11.2655 148.216 12.9955 148.241C14.7254 148.266 16.4327 148.652 18.0143 149.377L85.5692 176.8Z" fill="white" fill-opacity="0.1"/>
<path d="M175.892 211.935L144.411 227.502L120.431 217.846L155.503 203.724L175.892 211.935Z" fill="white" fill-opacity="0.1"/>
<path d="M88.7385 254.413L59.3677 268.719L8.47965 243.909C5.52722 242.365 3.28798 239.719 2.23802 236.535C1.18807 233.35 1.41022 229.878 2.85726 226.856C4.3043 223.835 6.86207 221.502 9.98673 220.354C13.1114 219.206 16.5565 219.333 19.5895 220.709L88.7385 254.413Z" fill="white" fill-opacity="0.1"/>
<path d="M190.154 303.595H130.999L118.846 297.603L148.424 282.987L190.154 303.595Z" fill="white" fill-opacity="0.1"/>
<path d="M197.349 173.479L61.5575 227.503L30.1077 212.132L187.997 149.353C189.578 148.643 191.284 148.265 193.013 148.241C194.742 148.217 196.457 148.547 198.057 149.212C199.656 149.878 201.106 150.864 202.319 152.111C203.532 153.359 204.483 154.842 205.114 156.472C205.746 158.101 206.045 159.844 205.994 161.594C205.943 163.343 205.543 165.065 204.817 166.654C204.092 168.243 203.056 169.667 201.772 170.84C200.489 172.013 198.984 172.91 197.349 173.479Z" fill="white" fill-opacity="0.1"/>
<path d="M85.5692 28.5603L50.5099 42.8019L8.65662 25.7782C7.02024 25.1977 5.51451 24.2807 4.23014 23.0827C2.94578 21.8847 1.90936 20.4304 1.18332 18.8075C0.45729 17.1845 0.0566654 15.4264 0.00558785 13.6391C-0.0454897 11.8518 0.25404 10.0724 0.886125 8.40794C1.51821 6.74349 2.46977 5.22851 3.68348 3.95426C4.89719 2.68001 6.34793 1.67287 7.9483 0.993504C9.54867 0.31414 11.2655 -0.0233934 12.9955 0.00125932C14.7254 0.025912 16.4327 0.412231 18.0143 1.13694L85.5692 28.5603Z" fill="white" fill-opacity="0.1"/>
<path d="M175.892 63.6948L144.411 79.2627L120.431 69.6067L155.503 55.4839L175.892 63.6948Z" fill="white" fill-opacity="0.1"/>
<path d="M197.349 25.239L61.5575 79.2628L30.1077 63.8923L187.997 1.11316C189.578 0.403609 191.284 0.02537 193.013 0.00123298C194.742 -0.022904 196.457 0.307569 198.057 0.972723C199.656 1.63788 201.106 2.62395 202.319 3.87155C203.532 5.11915 204.483 6.60244 205.114 8.23207C205.746 9.8617 206.045 11.6039 205.994 13.3538C205.943 15.1037 205.543 16.825 204.817 18.4141C204.092 20.0031 203.056 21.427 201.772 22.5999C200.489 23.7729 198.984 24.6706 197.349 25.239Z" fill="white" fill-opacity="0.1"/>
<path d="M120.431 102.772L155.49 117.014L197.343 99.9904C198.98 99.4098 200.485 98.4929 201.77 97.2949C203.054 96.0969 204.091 94.6426 204.817 93.0196C205.543 91.3966 205.943 89.6385 205.994 87.8513C206.045 86.064 205.746 84.2845 205.114 82.6201C204.482 80.9557 203.53 79.4407 202.316 78.1664C201.103 76.8922 199.652 75.885 198.052 75.2057C196.451 74.5263 194.734 74.1888 193.004 74.2134C191.274 74.2381 189.567 74.6244 187.986 75.3491L120.431 102.772Z" fill="white" fill-opacity="0.1"/>
<path d="M30.1076 137.907L61.5892 153.475L85.5691 143.819L50.4969 129.696L30.1076 137.907Z" fill="white" fill-opacity="0.1"/>
<path d="M8.65102 99.4512L144.442 153.475L175.892 138.104L18.0027 75.3253C16.4221 74.6158 14.716 74.2375 12.9871 74.2134C11.2583 74.1893 9.5425 74.5197 7.94316 75.1849C6.34382 75.85 4.894 76.8361 3.68107 78.0837C2.46814 79.3313 1.51719 80.8146 0.885515 82.4442C0.253837 84.0739 -0.0454755 85.8161 0.00556915 87.566C0.0566138 89.3159 0.456968 91.0372 1.18254 92.6262C1.9081 94.2153 2.94385 95.6391 4.22739 96.8121C5.51093 97.985 7.01569 98.8828 8.65102 99.4512Z" fill="white" fill-opacity="0.1"/>
</svg>
