<svg width="147" height="46" viewBox="0 0 147 46" fill="none" xmlns="http://www.w3.org/2000/svg">
<path d="M57.5217 23C57.5217 27.3802 53.9449 30.931 49.5326 30.931C45.1203 30.931 41.5435 27.3802 41.5435 23C41.5435 18.6198 45.1203 15.069 49.5326 15.069C53.9449 15.069 57.5217 18.6198 57.5217 23Z" fill="#559D11"/>
<path d="M0.68387 32.5172V12.4549H10.7885L16.2483 23.9152L21.8167 12.4549H31.4868V32.5172H24.3157V19.9783L18.3127 32.5172H13.695L7.74626 19.9783V32.5172H0.68387Z" fill="#363636"/>
<path d="M48.1583 12.1043H49.3806C60.1644 12.1043 62.3917 17.875 62.3917 22.0277V22.8366C62.3917 26.9354 60.1915 32.8678 49.3806 32.8678H48.1583C37.4017 32.8678 35.1472 26.9354 35.1472 22.8366V22.0277C35.1472 17.848 37.4289 12.1043 48.1583 12.1043ZM54.7318 22.54V22.2434C54.7318 20.3019 53.8625 17.5514 48.7559 17.5514C43.6492 17.5514 42.8072 20.3019 42.8072 22.2434V22.54C42.8072 24.4815 43.7036 27.3399 48.783 27.3399C53.8625 27.3399 54.7318 24.4815 54.7318 22.54Z" fill="#363636"/>
<path d="M66.0715 32.5172V12.4549H73.4055V19.5199H83.646V12.4549H90.9528V32.5172H83.646V24.913H73.4055V32.5172H66.0715Z" fill="#363636"/>
<path d="M102.578 32.5172V17.9828H94.4836V12.4549H117.98V17.9828H109.885V32.5172H102.578Z" fill="#363636"/>
<path d="M138.923 32.5172V20.4097L128.846 32.5172H121.512V12.4549H128.846V24.5624L138.923 12.4549H146.23V32.5172H138.923Z" fill="#363636"/>
<path d="M0 38.8621H98.2663V46H0V38.8621Z" fill="#559D11"/>
<path d="M98.2663 38.8621H147V46H98.2663V38.8621Z" fill="#363636"/>
<path d="M94.2717 0H118.239V4.75862H94.2717V0Z" fill="#559D11"/>
</svg>
