<svg width="44" height="45" viewBox="0 0 44 45" fill="none" xmlns="http://www.w3.org/2000/svg">
<g clip-path="url(#clip0_62_7362)">
<path d="M22 44.0183C34.1553 44.0183 44.0092 34.1645 44.0092 22.0092C44.0092 9.85384 34.1553 0 22 0C9.84468 0 -0.00915527 9.85384 -0.00915527 22.0092C-0.00915527 34.1645 9.84468 44.0183 22 44.0183Z" fill="url(#paint0_linear_62_7362)"/>
<path d="M31.2734 26.0659L28.8524 23.6248C28.4522 23.2247 27.912 22.9846 27.4118 22.9846C26.8715 22.9846 26.3913 23.2047 25.9712 23.6248L24.5706 25.0254C24.5106 24.9854 24.4305 24.9454 24.3705 24.9254C24.3705 24.9254 24.3505 24.9254 24.3505 24.9054L24.3305 24.8854C24.1504 24.7653 23.9503 24.6453 23.7102 24.5452C22.4897 23.7849 21.3492 22.7245 20.1888 21.3039C19.6485 20.6236 19.2684 20.0233 18.9683 19.3631C19.2884 19.103 19.5285 18.8428 19.7086 18.6428L20.3288 18.0225C20.809 17.5823 21.0491 17.0821 21.0491 16.5619C21.0491 16.0217 20.809 15.5215 20.3488 15.0413L18.448 13.1405C18.268 12.9604 18.0879 12.7803 17.8878 12.6002C17.4876 12.2201 16.9874 12 16.4672 12C15.887 12 15.4068 12.2001 14.9666 12.6403L13.506 14.1009C12.9257 14.6411 12.5856 15.3214 12.5056 16.1617V16.1817C12.4655 17.2222 12.6256 18.1826 13.0658 19.3831C13.7661 21.2639 14.8265 23.0246 16.4072 24.9654C18.468 27.2864 20.789 29.0871 23.3701 30.3276L23.4301 30.3476C24.1904 30.6878 25.631 31.328 27.2317 31.4281H27.4518C28.5122 31.4281 29.3126 31.0879 29.9728 30.3676C30.2129 30.0875 30.473 29.8274 30.6931 29.5873C30.8732 29.4473 30.9933 29.3072 31.1133 29.1671L31.2734 29.0071L31.3134 28.9671C32.1537 28.0467 32.1537 26.9262 31.2734 26.0659ZM30.5731 28.2868L30.373 28.4869L30.353 28.5269C30.253 28.6469 30.1729 28.747 30.0729 28.827L30.0129 28.887C29.7728 29.1271 29.4926 29.4072 29.2125 29.7274C28.7523 30.2276 28.2321 30.4477 27.4518 30.4477H27.2917C25.8911 30.3476 24.6106 29.7874 23.8503 29.4473L23.8103 29.4272C21.3492 28.2468 19.1283 26.526 17.1875 24.3251C15.6669 22.4844 14.6665 20.8037 14.0062 19.0429C13.606 17.9425 13.466 17.1421 13.506 16.2418C13.566 15.6615 13.7861 15.2013 14.1863 14.8412L15.6669 13.3606C15.907 13.1205 16.1471 13.0204 16.4472 13.0204C16.7073 13.0204 16.9474 13.1405 17.1675 13.3406L17.1875 13.3606C17.3676 13.5206 17.5477 13.7007 17.7277 13.8808L19.6285 15.7816C19.9887 16.1417 20.0487 16.4218 20.0487 16.5819C20.0487 16.742 20.0087 16.9821 19.6285 17.3222L18.9883 17.9625C18.7682 18.2026 18.5081 18.4627 18.1679 18.7428L18.1279 18.7828L18.0879 18.8428C17.9078 19.0829 17.8878 19.303 17.9878 19.6232L18.0079 19.7032L18.0279 19.7832C18.368 20.5235 18.7882 21.2038 19.3884 21.9641C20.6289 23.4848 21.8695 24.6253 23.19 25.4456L23.25 25.4856C23.4101 25.5656 23.5702 25.6457 23.7102 25.7257C23.7703 25.7857 23.8503 25.8258 23.9103 25.8458C23.9903 25.8858 24.0504 25.9058 24.0904 25.9458L24.2304 26.0458H24.2705L24.3305 26.0659C24.4505 26.1059 24.5306 26.1059 24.5906 26.1059C24.7907 26.1059 24.9708 26.0258 25.1508 25.8458L26.6515 24.3451C26.8916 24.105 27.1116 24.005 27.3918 24.005C27.6919 24.005 27.972 24.1851 28.1321 24.3451L30.5731 26.7862C31.0533 27.2664 31.0733 27.7666 30.5731 28.2868Z" fill="black"/>
</g>
<defs>
<linearGradient id="paint0_linear_62_7362" x1="-0.00915527" y1="22.0092" x2="44.0092" y2="22.0092" gradientUnits="userSpaceOnUse">
<stop stop-color="#FFE594"/>
<stop offset="1" stop-color="#FFD968"/>
</linearGradient>
<clipPath id="clip0_62_7362">
<rect width="44.0183" height="44.0183" fill="white" transform="translate(-0.00915527)"/>
</clipPath>
</defs>
</svg>
