<svg width="28" height="28" viewBox="0 0 28 28" fill="none" xmlns="http://www.w3.org/2000/svg">
<path d="M5.13234 3.28414C6.27656 2.86053 7.57438 3.13228 8.45274 4.01042C9.6816 5.23928 9.6816 7.23222 8.45269 8.46113C7.2235 9.69032 5.23083 9.69032 4.00165 8.46113C3.11981 7.5793 2.84979 6.27432 3.28067 5.127C3.38942 4.83746 3.24286 4.51461 2.95331 4.40587C2.66377 4.29712 2.34092 4.44368 2.23218 4.73322C1.6482 6.28824 2.0143 8.05771 3.20969 9.25309C4.87626 10.9197 7.57807 10.9197 9.24465 9.25309C10.9109 7.58679 10.9109 4.88471 9.24465 3.21841C8.05407 2.02813 6.29431 1.65968 4.74348 2.23381C4.45345 2.34119 4.30535 2.66336 4.41273 2.95339C4.52011 3.24343 4.8423 3.39152 5.13234 3.28414Z" fill="#66B020"/>
<path d="M4.41349 3.22879L5.8594 4.67442C5.97783 4.79293 5.97783 4.98562 5.85938 5.10407L5.09583 5.86762C4.97713 5.98632 4.78485 5.98632 4.66615 5.86762L3.22803 4.42978C3.00931 4.21111 2.65474 4.21114 2.43608 4.42986C2.21741 4.64858 2.21743 5.00315 2.43616 5.22182L3.87425 6.65961C4.43031 7.21567 5.33172 7.21567 5.88781 6.65958L6.65136 5.89603C7.20715 5.34024 7.20715 4.43869 6.65152 3.8826L5.2054 2.43675C4.98667 2.21808 4.63211 2.21811 4.41344 2.43683C4.19477 2.65555 4.19477 3.01012 4.41349 3.22879ZM22.8709 24.7361C21.7266 25.1597 20.4288 24.888 19.5504 24.0098C18.3216 22.781 18.3216 20.788 19.5505 19.5591C20.7797 18.3299 22.7724 18.3299 24.0015 19.5591C24.8834 20.4409 25.1534 21.7459 24.7225 22.8932C24.6138 23.1828 24.7603 23.5056 25.0499 23.6144C25.3394 23.7231 25.6623 23.5766 25.771 23.287C26.355 21.732 25.9889 19.9625 24.7935 18.7671C23.1269 17.1006 20.4251 17.1006 18.7585 18.7671C17.0922 20.4334 17.0922 23.1355 18.7585 24.8018C19.9491 25.9921 21.7089 26.3606 23.2597 25.7864C23.5497 25.679 23.6978 25.3569 23.5905 25.0668C23.4831 24.7768 23.1609 24.6287 22.8709 24.7361H22.8709Z" fill="#66B020"/>
<path d="M23.5897 24.7915L22.1441 23.3458C22.0254 23.2272 22.0254 23.0347 22.1439 22.9163L22.9074 22.1525C23.0261 22.0339 23.2183 22.0339 23.337 22.1526L24.7752 23.5904C24.9939 23.8091 25.3484 23.8091 25.5671 23.5904C25.7858 23.3716 25.7858 23.0171 25.567 22.7984L24.1289 21.3606C23.5729 20.8046 22.6715 20.8046 22.1154 21.3606L21.352 22.1243C20.796 22.6799 20.796 23.5817 21.3521 24.1378L22.7977 25.5835C23.0164 25.8021 23.371 25.8021 23.5897 25.5835C23.8084 25.3648 23.8084 25.0102 23.5897 24.7915L23.5897 24.7915ZM18.4425 20.1848L7.74394 9.48627C7.52525 9.26757 7.17068 9.26757 6.95199 9.48627C6.73329 9.70496 6.73329 10.0595 6.95199 10.2782L17.6505 20.9767C17.8692 21.1954 18.2238 21.1954 18.4425 20.9767C18.6612 20.758 18.6612 20.4035 18.4425 20.1848ZM9.39985 7.63597L20.3476 18.5837C20.5663 18.8024 20.9208 18.8024 21.1395 18.5837C21.3582 18.365 21.3582 18.0104 21.1395 17.7917L10.1918 6.84401C9.97311 6.62532 9.61855 6.62532 9.39985 6.84401C9.18116 7.06271 9.18116 7.41727 9.39985 7.63597ZM16.3976 10.7127L21.2301 5.88017C21.4488 5.66148 21.4488 5.30691 21.2301 5.08822C21.0114 4.86952 20.6568 4.86952 20.4381 5.08822L15.6056 9.92073C15.3869 10.1394 15.3869 10.494 15.6056 10.7127C15.8243 10.9314 16.1789 10.9314 16.3976 10.7127ZM22.2599 6.61348L17.2683 11.5566C17.0486 11.7742 17.0469 12.1288 17.2645 12.3486C17.4821 12.5683 17.8367 12.57 18.0564 12.3524L23.048 7.40929C23.2678 7.19166 23.2695 6.8371 23.0518 6.61733C22.8342 6.39757 22.4797 6.39585 22.2599 6.61348Z" fill="#66B020"/>
<path d="M25.8595 3.58215C25.9338 3.65645 25.9857 3.75014 26.0093 3.85254C26.0328 3.95493 26.0271 4.06188 25.9928 4.16118L25.2216 6.39054C25.1939 6.47069 25.1483 6.54349 25.0884 6.60345C25.0284 6.66342 24.9556 6.70899 24.8755 6.73672L22.6458 7.50811C22.5465 7.54247 22.4396 7.54819 22.3372 7.52462C22.2347 7.50106 22.141 7.44915 22.0667 7.37484L20.6088 5.91659C20.5345 5.8423 20.4826 5.7486 20.459 5.64622C20.4355 5.54383 20.4412 5.43688 20.4755 5.33759L21.2467 3.10823C21.2744 3.02809 21.3199 2.95529 21.3799 2.89533C21.4399 2.83537 21.5127 2.78981 21.5928 2.76208L23.8221 1.99069C23.9215 1.95632 24.0284 1.9506 24.1308 1.97416C24.2332 1.99772 24.3269 2.04963 24.4012 2.12393L25.8595 3.58218L25.8595 3.58215ZM23.8572 3.16373L22.2162 3.73153L21.6486 5.37254L22.611 6.33506L24.2522 5.76724L24.8198 4.12629L23.8572 3.16373H23.8572ZM12.3409 18.0543L5.70831 24.687C5.50332 24.892 5.25709 24.9185 5.16871 24.8302L3.13048 22.7919C3.04235 22.7037 3.06885 22.4576 3.27398 22.2524L9.8936 15.633C10.1123 15.4143 10.1123 15.0597 9.89363 14.841C9.67496 14.6224 9.32037 14.6224 9.10167 14.841L2.48191 21.4605C1.8727 22.0701 1.77089 23.0157 2.33839 23.5837L4.37695 25.6223C4.94509 26.1899 5.89111 26.0881 6.5003 25.4789L13.1329 18.8463C13.3516 18.6276 13.3516 18.273 13.1329 18.0543C12.9142 17.8356 12.5597 17.8356 12.341 18.0543L12.3409 18.0543Z" fill="#66B020"/>
</svg>
