<svg width="294" height="260" viewBox="0 0 294 260" fill="none" xmlns="http://www.w3.org/2000/svg">
<path d="M227.286 206.81L117.969 260H65.2027L217.306 185.996C218.667 185.285 220.156 184.856 221.685 184.735C223.213 184.614 224.75 184.803 226.205 185.291C227.66 185.779 229.003 186.556 230.155 187.576C231.307 188.597 232.244 189.839 232.911 191.231C233.578 192.622 233.962 194.135 234.039 195.678C234.117 197.222 233.887 198.765 233.362 200.218C232.838 201.67 232.03 203.002 230.986 204.134C229.942 205.266 228.684 206.176 227.286 206.81Z" fill="#66B020"/>
<path d="M126.216 146.362L94.8229 159.126L57.346 143.868C55.8808 143.348 54.5325 142.526 53.3824 141.453C52.2323 140.379 51.3043 139.076 50.6542 137.621C50.0041 136.166 49.6453 134.591 49.5996 132.989C49.5539 131.387 49.8221 129.792 50.3881 128.301C50.954 126.809 51.8061 125.451 52.8929 124.309C53.9797 123.167 55.2787 122.264 56.7118 121.655C58.1448 121.047 59.6822 120.744 61.2312 120.766C62.7803 120.788 64.309 121.134 65.7252 121.784L126.216 146.362Z" fill="#66B020"/>
<path d="M207.095 177.851L178.905 191.803L157.432 183.149L188.837 170.492L207.095 177.851Z" fill="#66B020"/>
<path d="M207.095 117.851L176.5 129L141.5 110.492L183 108.5L207.095 117.851Z" fill="#66B020"/>
<path d="M129.054 215.921L102.754 228.743L57.1875 206.507C54.5438 205.123 52.5387 202.752 51.5985 199.898C50.6583 197.044 50.8573 193.932 52.153 191.224C53.4487 188.516 55.739 186.425 58.537 185.396C61.3349 184.367 64.4197 184.482 67.1356 185.715L129.054 215.921Z" fill="#66B020"/>
<path d="M219.865 260H166.895L156.014 254.63L182.498 241.53L219.865 260Z" fill="#66B020"/>
<path d="M226.308 143.385L104.715 191.803L76.5541 178.028L217.934 121.763C219.349 121.127 220.877 120.788 222.425 120.766C223.973 120.744 225.509 121.041 226.941 121.637C228.374 122.233 229.672 123.117 230.758 124.235C231.844 125.353 232.696 126.682 233.261 128.143C233.827 129.603 234.095 131.165 234.049 132.733C234.003 134.302 233.645 135.844 232.995 137.268C232.345 138.693 231.418 139.969 230.269 141.02C229.119 142.071 227.772 142.876 226.308 143.385Z" fill="#66B020"/>
<path d="M11 88H286V96C286 98.1217 284.475 100.157 281.761 101.657C279.046 103.157 275.365 104 271.526 104H25.4737C21.635 104 17.9536 103.157 15.2392 101.657C12.5249 100.157 11 98.1217 11 96V88Z" fill="#66B020"/>
<rect x="16" y="16" width="270" height="12" fill="#66B020"/>
<rect x="63.8977" y="16.5818" width="9.24476" height="79.7194" fill="#66B020"/>
<rect x="11" y="16" width="9" height="80" fill="#66B020"/>
<rect x="277" y="16" width="9" height="80" fill="#66B020"/>
<rect x="116.142" y="16.5818" width="9.24476" height="79.7194" fill="#66B020"/>
<rect x="168.387" y="16.5818" width="9.24476" height="79.7194" fill="#66B020"/>
<rect x="220.632" y="16.5818" width="9.24476" height="79.7194" fill="#66B020"/>
</svg>
