<svg width="44" height="44" viewBox="0 0 44 44" fill="none" xmlns="http://www.w3.org/2000/svg">
<g clip-path="url(#clip0_62_7345)">
<path d="M22.0092 44.0183C34.1645 44.0183 44.0183 34.1645 44.0183 22.0092C44.0183 9.85384 34.1645 0 22.0092 0C9.85384 0 0 9.85384 0 22.0092C0 34.1645 9.85384 44.0183 22.0092 44.0183Z" fill="url(#paint0_linear_62_7345)"/>
<path fill-rule="evenodd" clip-rule="evenodd" d="M9.9509 21.7709C16.3649 18.9854 20.6348 17.1345 22.7789 16.2366C28.8813 13.6893 30.1641 13.2495 30.9888 13.2311C31.1721 13.2311 31.5752 13.2678 31.8501 13.4877C32.07 13.671 32.125 13.9092 32.1616 14.0924C32.1983 14.2757 32.2349 14.6605 32.1983 14.9538C31.8684 18.4356 30.439 26.8838 29.706 30.7688C29.3945 32.4181 28.7897 32.9679 28.2033 33.0229C26.9205 33.1328 25.9492 32.1799 24.7214 31.3736C22.7789 30.1091 21.6977 29.3211 19.8101 28.075C17.6294 26.6456 19.0404 25.8575 20.2866 24.5747C20.6165 24.2449 26.2424 19.1137 26.3524 18.6555C26.3707 18.6006 26.3707 18.3807 26.2424 18.2707C26.1142 18.1608 25.9309 18.1974 25.7843 18.2341C25.5827 18.2707 22.504 20.3232 16.5115 24.3732C15.6319 24.9779 14.8439 25.2711 14.1292 25.2528C13.3412 25.2345 11.8384 24.813 10.7023 24.4465C9.32783 24.0066 8.22829 23.7684 8.31991 22.9987C8.37489 22.5956 8.92466 22.1924 9.9509 21.7709Z" fill="white"/>
</g>
<defs>
<linearGradient id="paint0_linear_62_7345" x1="21.9908" y1="0" x2="21.9908" y2="43.6701" gradientUnits="userSpaceOnUse">
<stop stop-color="#2AABEE"/>
<stop offset="1" stop-color="#229ED9"/>
</linearGradient>
<clipPath id="clip0_62_7345">
<rect width="44" height="44" fill="white"/>
</clipPath>
</defs>
</svg>
