<svg width="44" height="44" viewBox="0 0 44 44" fill="none" xmlns="http://www.w3.org/2000/svg">
<g clip-path="url(#clip0_62_7355)">
<path d="M22.1712 43.2228C33.984 43.2228 43.5601 33.6467 43.5601 21.834C43.5601 10.0212 33.984 0.445068 22.1712 0.445068C10.3585 0.445068 0.782349 10.0212 0.782349 21.834C0.782349 33.6467 10.3585 43.2228 22.1712 43.2228Z" fill="#6EBF3A"/>
<path d="M31.9815 12.2306C29.5832 9.83151 26.3951 8.50994 22.9996 8.50885C16.0024 8.50885 10.3074 14.2016 10.3039 21.1991C10.3039 23.4371 10.8886 25.6188 11.9977 27.5425L10.1975 34.1198L16.927 32.3539C18.7821 33.3661 20.8691 33.8997 22.9958 33.8997H22.9996C29.9952 33.8997 35.6918 28.2069 35.6953 21.2086C35.6956 17.817 34.3778 14.6288 31.9815 12.2306ZM22.9996 31.7575H22.9958C21.1026 31.7556 19.2455 31.2468 17.6257 30.286L17.2383 30.0561L13.2469 31.1045L14.3121 27.2116L14.0596 26.813C13.0039 25.1342 12.4456 23.1917 12.4475 21.1988C12.4494 15.3828 17.1833 10.6505 23.0031 10.6505C25.821 10.6524 28.472 11.7509 30.464 13.7448C32.4557 15.7387 33.5534 18.3884 33.5515 21.2073C33.5498 27.0258 28.8159 31.7575 22.9996 31.7575ZM28.7876 23.8564C28.4704 23.6989 26.9113 22.9318 26.6209 22.8254C26.3306 22.719 26.1176 22.6657 25.9069 22.983C25.6963 23.3 25.0885 24.0139 24.9026 24.2267C24.7163 24.4392 24.5323 24.4659 24.2153 24.3064C23.8981 24.1467 22.8747 23.8129 21.6631 22.7324C20.7214 21.8911 20.0833 20.8525 19.901 20.5352C19.7149 20.2171 19.88 20.0462 20.0376 19.8876C20.1821 19.7461 20.3565 19.5173 20.5143 19.3323C20.6718 19.147 20.7249 19.015 20.8315 18.8033C20.9379 18.5916 20.8846 18.4066 20.8049 18.248C20.7252 18.0885 20.0909 16.5275 19.827 15.8933C19.5707 15.2742 19.3086 15.3578 19.113 15.3482C18.9288 15.3398 18.7163 15.3379 18.5054 15.3379C18.2948 15.3379 17.9492 15.4168 17.6605 15.7346C17.368 16.0519 16.5496 16.8189 16.5496 18.3797C16.5496 19.9404 17.6869 21.4481 17.8448 21.66C18.0023 21.8717 20.0817 25.0732 23.2622 26.4481C24.02 26.7746 24.6104 26.9703 25.0719 27.1164C25.8313 27.3577 26.5243 27.3234 27.0715 27.2418C27.6788 27.1507 28.9476 26.4748 29.2113 25.7341C29.4755 24.9935 29.4755 24.3592 29.3955 24.2264C29.3152 24.0937 29.1065 24.0139 28.7876 23.8564Z" fill="white"/>
</g>
<defs>
<clipPath id="clip0_62_7355">
<rect width="42.7778" height="42.7778" fill="white" transform="translate(0.782959 0.44519)"/>
</clipPath>
</defs>
</svg>
